<svg width="101" height="20" viewBox="0 0 101 20" fill="none" xmlns="http://www.w3.org/2000/svg">
<path d="M10.6534 1.04323L12.4828 7.06648V7.50482H12.9828H18.5867C19.3191 7.50482 19.6284 8.44169 19.0255 8.87796C19.0252 8.87819 19.0248 8.87843 19.0245 8.87867L14.4426 12.1514L14.1487 12.3614L14.2557 12.7064L16.0565 18.5118L16.0567 18.5125C16.276 19.2159 15.4577 19.7869 14.8736 19.3394L14.8724 19.3385L10.2257 15.7999L9.92327 15.5696L9.62049 15.7994L4.97369 19.3254L4.97183 19.3268C4.38776 19.7743 3.56941 19.2034 3.78877 18.4999L3.78899 18.4992L5.58978 12.6938L5.69681 12.3488L5.40285 12.1388L0.819017 8.86468L0.817548 8.86364C0.223184 8.44232 0.521061 7.49223 1.25879 7.49223H6.86264H7.23261L7.34079 7.13844L9.20455 1.04346L9.20457 1.04346L9.206 1.0386C9.41517 0.328928 10.4294 0.310595 10.6533 1.04284C10.6534 1.04297 10.6534 1.0431 10.6534 1.04323Z" fill="url(#paint0_linear_1_1009)" stroke="#411A68"/>
<path d="M37.6534 1.04323L39.4828 7.06648V7.50482H39.9828H45.5867C46.3191 7.50482 46.6284 8.44169 46.0255 8.87796C46.0252 8.87819 46.0248 8.87843 46.0245 8.87867L41.4426 12.1514L41.1487 12.3614L41.2557 12.7064L43.0565 18.5118L43.0567 18.5125C43.276 19.2159 42.4577 19.7869 41.8736 19.3394L41.8724 19.3385L37.2257 15.7999L36.9233 15.5696L36.6205 15.7994L31.9737 19.3254L31.9718 19.3268C31.3878 19.7743 30.5694 19.2034 30.7888 18.4999L30.789 18.4992L32.5898 12.6938L32.6968 12.3488L32.4028 12.1388L27.819 8.86468L27.8175 8.86364C27.2232 8.44232 27.5211 7.49223 28.2588 7.49223H33.8626H34.2326L34.3408 7.13844L36.2045 1.04346L36.2046 1.04346L36.206 1.0386C36.4152 0.328928 37.4294 0.310595 37.6533 1.04284C37.6534 1.04297 37.6534 1.0431 37.6534 1.04323Z" fill="url(#paint1_linear_1_1009)" stroke="#411A68"/>
<path d="M64.6534 1.04323L66.4828 7.06648V7.50482H66.9828H72.5867C73.3191 7.50482 73.6284 8.44169 73.0255 8.87796C73.0252 8.87819 73.0248 8.87843 73.0245 8.87867L68.4426 12.1514L68.1487 12.3614L68.2557 12.7064L70.0565 18.5118L70.0567 18.5125C70.276 19.2159 69.4577 19.7869 68.8736 19.3394L68.8724 19.3385L64.2257 15.7999L63.9233 15.5696L63.6205 15.7994L58.9737 19.3254L58.9718 19.3268C58.3878 19.7743 57.5694 19.2034 57.7888 18.4999L57.789 18.4992L59.5898 12.6938L59.6968 12.3488L59.4028 12.1388L54.819 8.86468L54.8175 8.86364C54.2232 8.44232 54.5211 7.49223 55.2588 7.49223H60.8626H61.2326L61.3408 7.13844L63.2045 1.04346L63.2046 1.04346L63.206 1.0386C63.4152 0.328928 64.4294 0.310595 64.6533 1.04284C64.6534 1.04297 64.6534 1.0431 64.6534 1.04323Z" fill="url(#paint2_linear_1_1009)" stroke="#411A68"/>
<path d="M91.6534 1.04323L93.4828 7.06648V7.50482H93.9828H99.5867C100.319 7.50482 100.628 8.44169 100.025 8.87796C100.025 8.87819 100.025 8.87843 100.025 8.87867L95.4426 12.1514L95.1487 12.3614L95.2557 12.7064L97.0565 18.5118L97.0567 18.5125C97.276 19.2159 96.4577 19.7869 95.8736 19.3394L95.8724 19.3385L91.2257 15.7999L90.9233 15.5696L90.6205 15.7994L85.9737 19.3254L85.9718 19.3268C85.3878 19.7743 84.5694 19.2034 84.7888 18.4999L84.789 18.4992L86.5898 12.6938L86.6968 12.3488L86.4028 12.1388L81.819 8.86468L81.8175 8.86364C81.2232 8.44232 81.5211 7.49223 82.2588 7.49223H87.8626H88.2326L88.3408 7.13844L90.2045 1.04346L90.2046 1.04346L90.206 1.0386C90.4152 0.328928 91.4294 0.310595 91.6533 1.04284C91.6534 1.04297 91.6534 1.0431 91.6534 1.04323Z" fill="url(#paint3_linear_1_1009)" stroke="#411A68"/>
<defs>
<linearGradient id="paint0_linear_1_1009" x1="0.772427" y1="0.666667" x2="21.5457" y2="15.7205" gradientUnits="userSpaceOnUse">
<stop stop-color="#AA1FFE"/>
<stop offset="1" stop-color="#DD22E6"/>
</linearGradient>
<linearGradient id="paint1_linear_1_1009" x1="27.7724" y1="0.666667" x2="48.5457" y2="15.7205" gradientUnits="userSpaceOnUse">
<stop stop-color="#AA1FFE"/>
<stop offset="1" stop-color="#DD22E6"/>
</linearGradient>
<linearGradient id="paint2_linear_1_1009" x1="54.7724" y1="0.666667" x2="75.5457" y2="15.7205" gradientUnits="userSpaceOnUse">
<stop stop-color="#AA1FFE"/>
<stop offset="1" stop-color="#DD22E6"/>
</linearGradient>
<linearGradient id="paint3_linear_1_1009" x1="81.7724" y1="0.666667" x2="102.546" y2="15.7205" gradientUnits="userSpaceOnUse">
<stop stop-color="#AA1FFE"/>
<stop offset="1" stop-color="#DD22E6"/>
</linearGradient>
</defs>
</svg>
