<svg width="71" height="73" viewBox="0 0 71 73" fill="none" xmlns="http://www.w3.org/2000/svg">
<path fill-rule="evenodd" clip-rule="evenodd" d="M36.0519 1.41004C30.7466 2.61708 25.9838 6.44915 23.882 11.2016L23.1769 12.7956L17.9747 12.8605L12.7725 12.9252L12.4758 11.9039C11.8162 9.63471 10.648 8.28018 8.61442 7.42751C7.64417 7.0207 6.91558 6.93953 4.22065 6.93809C2.44376 6.93737 0.86201 7.01567 0.705643 7.11241C-0.289933 7.72826 -0.217574 9.26788 0.831244 9.78796C1.11322 9.92779 2.57816 10.042 4.08729 10.042C7.14483 10.042 8.10526 10.3291 8.70773 11.4229C8.90596 11.7828 9.5384 13.5858 10.1135 15.4295C10.6883 17.2732 11.5833 20.1286 12.1025 21.7748C17.6994 39.5228 18.9527 43.5627 18.9527 43.858C18.9527 44.0471 17.8605 45.4544 16.5258 46.9849C13.1907 50.809 12.9219 51.2489 12.9234 52.8757C12.9255 54.9148 13.843 56.3651 15.722 57.2977C16.7537 57.8102 16.8021 57.8113 39.7887 57.8772C54.8126 57.9203 63.0599 57.8592 63.5068 57.7019C64.7161 57.276 64.903 55.6707 63.8208 55.0012C63.6644 54.9045 53.2781 54.8238 40.7398 54.8216C24.5909 54.819 17.7597 54.7405 17.3133 54.5523C16.5439 54.2273 16.0337 53.2662 16.2647 52.5757C16.3586 52.2946 17.5948 50.7176 19.0116 49.0714L21.5877 46.0783L38.2974 45.9586L55.0074 45.8389L56.2997 45.2266C57.0671 44.8629 57.9378 44.1822 58.4436 43.5505C58.9119 42.9653 61.0411 39.0387 63.1752 34.8245C65.3093 30.6103 67.5258 26.2464 68.1006 25.127C70.764 19.9413 71.01 19.3217 70.9997 17.8239C70.994 16.9737 70.8167 16.0796 70.5652 15.633C69.9922 14.6154 68.2182 13.2441 67.2405 13.0628C66.8024 12.9817 64.4375 12.9153 61.985 12.9153H57.5258L56.95 11.4887C56.1149 9.42017 54.0796 6.68452 52.2259 5.13987C50.2632 3.50398 46.6425 1.78262 44.1522 1.3011C41.7414 0.835139 38.3804 0.880394 36.0519 1.41004ZM43.2771 4.29391C45.4991 4.67367 48.6765 6.25711 50.4343 7.86043C53.3148 10.4879 54.7177 13.6301 54.7223 17.4648C54.7254 20.0893 54.1434 22.0188 52.6547 24.3189C48.6719 30.4726 40.0929 32.5749 33.2733 29.0682C28.8769 26.8076 25.931 22.167 25.931 17.5019C25.931 13.7323 27.2771 10.7096 30.1547 8.01727C33.6338 4.76226 38.2891 3.44125 43.2771 4.29391ZM42.2916 16.3207L37.0424 21.1627L35.0349 19.3138C33.3689 17.7796 32.8861 17.4648 32.1989 17.4648C31.2126 17.4648 30.4411 18.3445 30.674 19.2036C30.7551 19.5034 32.0882 20.9049 33.6361 22.3181C35.8811 24.3677 36.5988 24.8875 37.1837 24.8875C37.795 24.8875 38.9169 23.9633 43.9421 19.319C49.2749 14.3908 49.9675 13.6634 49.9675 12.991C49.9675 12.0275 49.3798 11.4787 48.348 11.4787C47.644 11.4787 46.8717 12.0962 42.2916 16.3207ZM22.5755 17.6444C22.5858 21.2901 24.3712 25.6111 26.9871 28.319C35.4823 37.1136 50.7917 35.1341 56.3031 24.5284C57.5589 22.1119 58.0117 20.3848 58.0696 17.7931L58.1089 16.0286L62.4192 16.0283L66.7297 16.0281L67.2653 16.659C67.5599 17.006 67.801 17.5383 67.801 17.8421C67.801 18.3186 66.2818 21.436 60.6335 32.5498C59.9975 33.8008 59.0404 35.6865 58.5062 36.74C56.3157 41.0608 55.8782 41.7897 55.2 42.2472C54.5083 42.7139 54.0816 42.7261 38.337 42.7261H22.1834L21.6285 40.9303C20.9565 38.7547 14.0942 17.0383 13.8921 16.4471C13.7593 16.0592 14.0764 16.0281 18.16 16.0281H22.5711L22.5755 17.6444ZM17.2727 61.0865C14.0945 62.1917 12.2796 65.2624 13.0932 68.1573C13.9634 71.253 16.6062 72.9926 20.0093 72.7096C21.6856 72.57 22.6207 72.1687 23.8194 71.0737C25.1869 69.8247 25.7486 68.5777 25.7486 66.7903C25.7486 64.3934 24.4237 62.4127 22.1369 61.3915C20.9679 60.8693 18.3663 60.706 17.2727 61.0865ZM56.0413 61.0865C52.863 62.1917 51.0481 65.2624 51.8617 68.1573C52.732 71.253 55.3747 72.9926 58.7778 72.7096C60.4542 72.57 61.3892 72.1687 62.588 71.0737C63.9555 69.8247 64.5171 68.5777 64.5171 66.7903C64.5171 64.3934 63.1922 62.4127 60.9054 61.3915C59.7364 60.8693 57.1348 60.706 56.0413 61.0865ZM21.2418 64.5234C23.5367 66.3126 22.2971 69.6636 19.3404 69.6636C17.9768 69.6636 16.807 68.8603 16.3653 67.6204C15.7253 65.8239 17.2572 63.9169 19.3404 63.9169C20.1654 63.9169 20.6704 64.0781 21.2418 64.5234ZM60.0104 64.5234C62.3052 66.3126 61.0657 69.6636 58.1089 69.6636C56.7453 69.6636 55.5755 68.8603 55.1338 67.6204C54.4939 65.8239 56.0257 63.9169 58.1089 63.9169C58.9339 63.9169 59.4389 64.0781 60.0104 64.5234Z" fill="#A020F0"/>
</svg>
