<svg width="77" height="77" viewBox="0 0 77 77" fill="none" xmlns="http://www.w3.org/2000/svg">
<path fill-rule="evenodd" clip-rule="evenodd" d="M24.5528 0.343867C22.874 0.879797 20.2883 3.42193 19.7395 5.07573L19.3556 6.23242L16.5622 6.30593C13.2649 6.39281 12.8497 6.61541 12.8497 8.29877V9.38579L9.44736 9.49761C6.52601 9.59374 5.86352 9.69656 4.76117 10.2261C2.90724 11.1164 1.22329 12.9039 0.555667 14.6898L0 16.1766L0.0695868 38.9648L0.139174 61.7532L0.90129 63.1307C1.76509 64.6917 3.11266 65.9476 4.85464 66.8151L6.04506 67.4081H18.6803C31.0149 67.4081 31.3246 67.3958 31.7036 66.8941C32.232 66.1941 32.2053 65.1341 31.6466 64.628C31.2365 64.2563 29.827 64.2018 19.0003 64.1383C5.2434 64.0574 5.51045 64.0949 4.16057 62.0532L3.47728 61.0199L3.40898 38.7926L3.34042 16.5652L3.88941 15.4304C4.22143 14.7436 4.8495 14.0228 5.47938 13.6054C6.44024 12.9687 6.76198 12.9085 9.65356 12.8258L12.7865 12.7358L12.8926 14.4022C13.0266 16.5097 13.8647 17.8843 15.4981 18.6758C16.6202 19.2194 16.8292 19.2276 27.6883 19.1567L38.737 19.0845L39.7235 18.2861C41.0832 17.186 41.6337 16.1349 41.7972 14.3277L41.9369 12.787L44.4048 12.7885C45.7622 12.7893 47.3324 12.9175 47.8939 13.0736C49.203 13.4375 50.7164 14.9525 51.08 16.2629C51.2441 16.8551 51.364 19.5075 51.3648 22.5697C51.3663 28.2552 51.4303 28.5559 52.7016 28.8625C53.2423 28.9931 53.543 28.8813 54.0702 28.3536L54.7455 27.6776L54.6608 21.7101C54.5781 15.8943 54.5591 15.7072 53.9051 14.3292C53.0485 12.524 51.6157 11.0938 49.8257 10.2569C48.6006 9.68422 47.983 9.58269 45.1695 9.49144L41.9256 9.38656L41.7972 8.2453C41.6095 6.57865 41.2059 6.37867 38.007 6.36916L35.3036 6.36094L34.5797 4.69762C33.7935 2.89063 32.574 1.6026 30.7715 0.674679C29.3297 -0.0676555 26.3397 -0.226507 24.5528 0.343867ZM29.9904 4.1036C31.1048 4.84183 31.7452 5.96715 32.0841 7.78211C32.2066 8.43885 32.4408 9.11076 32.6049 9.27501C32.7831 9.45391 34.0333 9.6089 35.715 9.66083L38.5274 9.74796V12.2384C38.5274 14.0765 38.4227 14.8785 38.1276 15.3L37.7281 15.8714H27.4275C18.203 15.8714 17.0778 15.827 16.6574 15.446C16.2602 15.0862 16.1878 14.6112 16.1878 12.3616V9.70247H18.7271C21.8585 9.70247 22.3065 9.43746 22.6293 7.39398C22.8784 5.81755 23.7964 4.50227 25.1814 3.73758C26.4478 3.03868 28.6338 3.20499 29.9904 4.1036ZM10.2167 25.9603C9.98557 26.1371 9.72135 26.5939 9.62942 26.9756C9.49975 27.5146 9.60965 27.8169 10.1227 28.3305L10.7831 28.9916L27.4688 28.9217C43.8122 28.8536 44.1627 28.8415 44.5425 28.3379C45.0737 27.6342 45.0434 26.5772 44.4772 26.0644C44.0505 25.6778 42.488 25.639 27.3222 25.639C14.3693 25.639 10.5428 25.711 10.2167 25.9603ZM10.1173 35.805C9.60939 36.3134 9.5 36.6164 9.62942 37.1544C9.9563 38.5121 9.75524 38.4913 22.4637 38.4872C28.9686 38.4849 34.4177 38.3983 34.5731 38.2944C34.9143 38.0664 35.4461 37.093 35.4461 36.6969C35.4461 36.5398 35.1624 36.1276 34.8157 35.7805L34.1856 35.1495H22.4788H10.7721L10.1173 35.805ZM53.4205 35.4148C48.8877 36.0396 44.8375 38.0734 41.4737 41.4141C35.1146 47.7291 33.5036 56.9725 37.346 65.0948C41.0066 72.833 48.6114 77.3983 57.1305 76.9726C60.4013 76.8089 62.2943 76.3593 64.9098 75.1245C69.5649 72.9271 72.9205 69.5755 75.1031 64.9434C76.3572 62.282 76.8055 60.4012 76.9696 57.1131C77.2467 51.5564 75.6346 46.8842 71.8613 42.3071C69.6384 39.611 64.7167 36.6409 61.0961 35.8109C58.9061 35.3089 55.4737 35.1318 53.4205 35.4148ZM60.6411 39.1416C66.2918 40.6073 71.0352 45.1165 72.9357 50.829C73.7247 53.2005 73.9122 57.3309 73.3462 59.8766C71.2278 69.4087 61.8454 75.3967 52.3156 73.2987C46.162 71.9441 40.8443 66.8172 39.1417 60.5966C38.4201 57.9609 38.531 53.5883 39.3864 50.9575C40.3126 48.1087 41.6789 45.8823 43.8001 43.7642C46.504 41.0645 49.8611 39.312 53.4128 38.7463C55.321 38.4422 58.6465 38.6242 60.6411 39.1416ZM10.2167 45.2384C9.98557 45.4152 9.72135 45.872 9.62942 46.2537C9.5 46.7917 9.60939 47.0947 10.1173 47.6031L10.7721 48.2586H19.2691H27.7661L28.4209 47.6031C29.1491 46.8739 29.0988 45.8676 28.3036 45.2625C27.6853 44.7919 10.8299 44.7695 10.2167 45.2384ZM62.9537 48.7084C62.5434 49.0971 60.5587 51.3238 58.5433 53.6565C56.5278 55.9891 54.423 58.3999 53.8661 59.0134L52.8531 60.1295L49.9361 57.2483C47.2967 54.6414 46.9523 54.3841 46.3199 54.543C45.4633 54.7581 44.9659 55.3732 44.9551 56.2302C44.9487 56.7237 45.8102 57.7388 48.6093 60.5356C52.8628 64.7861 53.0924 64.883 54.6842 63.1027C56.1979 61.4098 60.0685 57.0186 61.6649 55.1833C62.4566 54.2728 63.6988 52.8447 64.4253 52.0098C65.9439 50.2645 66.1839 49.1091 65.1751 48.4018C64.3565 47.8278 63.8026 47.9041 62.9537 48.7084Z" fill="#A020F0"/>
</svg>
