<svg width="70" height="73" viewBox="0 0 70 73" fill="none" xmlns="http://www.w3.org/2000/svg">
<path fill-rule="evenodd" clip-rule="evenodd" d="M5.10883 1.20347C3.82606 1.5691 2.84781 2.18358 1.83764 3.25845C0.265416 4.93128 -9.42839e-06 5.94992 0.00458921 10.2948C0.00688853 12.3443 0.0929853 14.1411 0.196199 14.2878C0.545952 14.7848 1.45904 14.8941 1.89003 14.4907C2.22982 14.1722 2.30109 13.485 2.30569 10.4745C2.31029 7.46913 2.3923 6.67566 2.78038 5.8755C3.34857 4.70348 4.5478 3.715 5.82443 3.36612C6.4731 3.18881 12.124 3.13043 23.7793 3.18044L40.7876 3.25318L41.8236 3.89542C43.4819 4.92339 43.9433 6.10258 43.9433 9.3109V11.9871H43.1769H42.4104L42.4066 9.41475C42.4025 6.52779 42.1933 5.93125 40.9001 5.11481C40.0981 4.60873 39.7655 4.56925 36.2981 4.56925C31.9544 4.56925 31.6857 4.66711 31.0416 6.48376L30.6172 7.67994H23.1345H15.6515L15.3268 6.59407C14.7754 4.7499 14.311 4.56925 10.1178 4.56925C6.01092 4.56925 5.11905 4.82815 4.29972 6.25907C3.85493 7.03603 3.83296 8.4703 3.83296 36.8726C3.83296 65.275 3.85493 66.7092 4.29972 67.4862C4.55648 67.9346 5.15839 68.4984 5.63716 68.7388C6.45469 69.1495 7.52363 69.176 23.2717 69.176H40.0355L40.9001 68.6304C42.1642 67.8324 42.4025 67.1981 42.4066 64.6176C42.4107 62.2131 42.2283 61.7582 41.2608 61.7582C40.314 61.7582 40.1111 62.2226 40.1111 64.3903C40.1111 65.6719 39.9954 66.5566 39.8046 66.7353C39.5726 66.9526 35.5393 67.0225 23.2165 67.0225C8.75605 67.0225 6.8903 66.9803 6.53365 66.6465C6.17316 66.3087 6.13228 63.2789 6.13228 36.8726C6.13228 10.4664 6.17316 7.43659 6.53365 7.09872C6.85325 6.79938 7.54995 6.7228 9.94941 6.7228H12.9638L13.2806 7.78283C13.6763 9.10655 14.3214 9.77009 15.3924 9.95506C15.8497 10.0338 19.6975 10.0658 23.9433 10.0259C32.6726 9.94357 32.2367 10.0426 32.9794 7.97163L33.3841 6.84245L36.3921 6.77473C38.391 6.72974 39.5192 6.79985 39.7555 6.98362C40.0153 7.18534 40.1111 7.89506 40.1111 9.61551V11.971L26.6346 12.0387C11.6826 12.1141 12.2071 12.0579 10.9427 13.7183L10.3477 14.4995L10.2785 29.8307L10.2092 45.1617L10.7956 45.9767C11.118 46.4249 11.7697 47.0365 12.2439 47.3356L13.1059 47.8797H26.6036H40.1014L40.1701 53.1748C40.2355 58.2072 40.2649 58.486 40.7616 58.7949C41.2074 59.0718 41.3676 59.0653 41.8474 58.7504C42.3987 58.3888 42.4104 58.2716 42.4104 53.1303V47.8797H43.1769H43.9433V57.4951C43.9433 66.8047 43.926 67.144 43.4015 68.159C43.075 68.7905 42.4475 69.4632 41.8236 69.8498L40.7876 70.4921L23.7793 70.5648C12.124 70.6148 6.4731 70.5564 5.82443 70.3791C4.5478 70.0303 3.34857 69.0418 2.78038 67.8698C2.33508 66.9521 2.31105 65.6561 2.30569 42.4444C2.30007 18.5109 2.28935 17.9807 1.80599 17.7383C1.13458 17.4018 0.872974 17.4258 0.402124 17.8665C0.042408 18.2037 0.000753269 20.786 0.000753269 42.7095C0.000753269 69.8556 -0.0891912 68.3924 1.69661 70.3461C2.19276 70.8888 3.13498 71.6282 3.79054 71.9893L4.98262 72.6456L22.8141 72.7117C40.0598 72.7756 40.6832 72.7624 41.7794 72.3082C43.5175 71.5882 44.5557 70.7347 45.3712 69.3564L46.1149 68.0992L46.2427 58.0493L46.3704 47.9994L56.8905 47.8797C67.0127 47.7646 67.4373 47.7414 68.1158 47.2667C68.5037 46.9953 69.0581 46.4761 69.3478 46.1126C69.8654 45.4637 69.8756 45.1844 69.9374 30.215L70 14.9781L69.4262 14.0344C68.4467 12.4233 67.577 12.1194 63.6728 12.0232C60.8696 11.9543 60.1717 12.0072 59.649 12.3278C58.8639 12.8097 58.8368 13.517 59.5846 14.0073C60.0243 14.2959 60.8743 14.3806 63.3529 14.3835C65.1132 14.3856 66.6798 14.4663 66.8344 14.563C67.6641 15.082 67.703 15.779 67.703 30.1679V44.5515L67.0758 45.1387L66.4488 45.7262H40.0135H13.5782L13.0489 45.0956C12.7229 44.7078 12.5193 44.1136 12.5193 43.5511V42.637L19.5015 42.5664L26.4838 42.4958L27.4432 41.81C29.3508 40.4466 30.0077 38.5215 29.2727 36.4491C29.0437 35.8033 28.5433 34.994 28.1605 34.6509C26.7398 33.3762 26.1208 33.2834 19.0422 33.2834H12.5193V24.3102C12.5193 15.656 12.5374 15.3201 13.0302 14.8585C13.5328 14.3878 13.8818 14.3799 34.252 14.3799C48.0397 14.3799 55.1278 14.2971 55.4568 14.1322C55.7726 13.9738 55.9509 13.6317 55.9509 13.1835C55.9509 12.7353 55.7726 12.3931 55.4568 12.2347C55.1714 12.0919 53.1194 11.9871 50.6027 11.9871H46.2427V9.0252C46.2427 5.81257 46.0666 5.15573 44.7512 3.46064C44.2417 2.80452 43.4474 2.22091 42.3897 1.72583L40.7961 0.97998L23.2724 1.00056C13.6347 1.01181 5.46088 1.10321 5.10883 1.20347ZM17.6092 18.19L16.8624 18.8895V22.2763V25.6631L17.6092 26.3625L18.356 27.062H23.6327H28.9094L29.6561 26.3625L30.4029 25.6631V22.2763V18.8895L29.6561 18.19L28.9094 17.4906H23.6327H18.356L17.6092 18.19ZM27.9758 22.2763V24.7888H23.6327H19.2895L19.2154 22.5335C19.1748 21.2931 19.2008 20.133 19.2737 19.9555C19.3789 19.6985 20.2813 19.6458 23.6909 19.6982L27.9758 19.7638V22.2763ZM37.8208 20.5855C37.412 21.301 37.4966 23.1432 37.9577 23.5754C38.9068 24.4641 40.1111 23.6036 40.1111 22.037C40.1111 21.5692 39.932 20.9471 39.7133 20.6547C39.2208 19.9957 38.1795 19.9576 37.8208 20.5855ZM43.7389 20.4099C43.3631 20.7619 43.3345 22.8542 43.6968 23.4885C43.9924 24.0058 44.9558 24.1037 45.4251 23.6641C45.5937 23.5062 45.7317 22.774 45.7317 22.037C45.7317 20.6058 45.4415 20.1227 44.582 20.1227C44.287 20.1227 43.9076 20.2519 43.7389 20.4099ZM48.0821 20.4099C47.9135 20.5678 47.7755 21.3 47.7755 22.037C47.7755 22.774 47.9135 23.5062 48.0821 23.6641C48.5065 24.0616 49.1952 24.0231 49.6735 23.5754C50.1346 23.1432 50.2192 21.301 49.8104 20.5855C49.5148 20.0682 48.5514 19.9703 48.0821 20.4099ZM56.5129 20.4099C56.3443 20.5678 56.2064 21.3 56.2064 22.037C56.2064 23.4213 56.4984 23.9513 57.2613 23.9513C58.0803 23.9513 58.5057 23.2667 58.5057 21.9482C58.5057 20.6018 58.204 20.1227 57.356 20.1227C57.061 20.1227 56.6816 20.2519 56.5129 20.4099ZM60.4364 20.6547C59.6206 21.7453 60.1924 23.9513 61.2909 23.9513C62.0679 23.9513 62.5934 23.1621 62.5934 21.9954C62.5934 20.3182 61.2925 19.5097 60.4364 20.6547ZM41.9506 33.0919C41.7334 33.2953 41.644 34.7138 41.644 37.9494C41.644 42.7456 41.7219 43.094 42.7937 43.094C43.6766 43.094 43.9433 42.6111 43.9433 41.0122V39.5048H45.1058C46.5745 39.5048 47.5791 39.0216 48.2617 37.9867C49.3567 36.3273 48.6559 34.1216 46.7485 33.224C45.6964 32.7287 42.4342 32.639 41.9506 33.0919ZM51.5526 33.2235C50.9545 33.866 47.82 41.8852 47.9646 42.4032C48.2809 43.5362 50.0899 43.0665 50.4399 41.7603C50.5868 41.2123 50.6995 41.18 52.4429 41.1821L54.2903 41.1845L54.7185 42.1393C55.047 42.872 55.2874 43.094 55.7531 43.094C56.4856 43.094 56.9728 42.682 56.9728 42.0627C56.9728 41.5133 54.0212 34.1087 53.4975 33.3432C53.0558 32.6981 52.0967 32.639 51.5526 33.2235ZM56.5129 33.0919C55.9529 33.6164 56.1936 34.4003 57.4838 36.2512L58.7612 38.0839V40.2128C58.7612 42.5212 59.0828 43.1883 60.128 43.0469C60.9435 42.9366 61.3081 41.9711 61.3121 39.9103C61.316 38.0796 61.3413 38.0056 62.5934 36.1775C63.9819 34.1501 64.1528 33.4415 63.3501 33.0393C62.5441 32.6351 62.0303 32.9311 61.0605 34.358C60.5687 35.0816 60.0909 35.6743 59.999 35.675C59.907 35.6757 59.5332 35.1993 59.1684 34.6164C58.0619 32.8479 57.263 32.3894 56.5129 33.0919ZM45.9302 35.3309C47.0635 36.0744 46.3614 37.3512 44.8194 37.3512H43.9433V36.1548C43.9433 35.0062 43.9717 34.9584 44.6528 34.9584C45.0432 34.9584 45.618 35.1261 45.9302 35.3309ZM26.4654 36.228C27.3885 37.2337 27.3295 38.8307 26.3349 39.7625L25.5881 40.4619H19.0537H12.5193V37.9382V35.4142L19.1842 35.4855L25.8492 35.5566L26.4654 36.228ZM53.3772 38.8467C53.3877 38.9453 52.9937 39.0262 52.5019 39.0262C52.0101 39.0262 51.6077 38.9745 51.6077 38.9113C51.6077 38.8482 51.8014 38.343 52.0385 37.7886L52.469 36.7805L52.9135 37.724C53.1582 38.2428 53.3667 38.7481 53.3772 38.8467ZM15.9683 52.2979C15.4062 52.489 14.5797 53.0181 14.1314 53.4737C12.2952 55.3399 12.9028 58.4451 15.3316 59.6056C16.3275 60.0815 16.7033 60.1012 23.4988 60.0339C30.2634 59.9672 30.6584 59.9384 31.3428 59.463C32.5885 58.598 33.2132 57.5066 33.2132 56.1956C33.2132 54.6314 32.5974 53.4835 31.3402 52.7039L30.3137 52.0672L23.6521 52.0088C18.347 51.9624 16.782 52.0212 15.9683 52.2979ZM30.4029 54.819C31.1131 55.4842 31.061 56.6172 30.2867 57.3422L29.6597 57.9296H23.1616C17.3484 57.9296 16.6067 57.8856 16.1251 57.5109C15.3035 56.872 15.1793 55.7802 15.839 54.9946L16.3885 54.3404H23.1404C29.5514 54.3404 29.9177 54.3646 30.4029 54.819Z" fill="#A020F0"/>
</svg>
